<svg xmlns="http://www.w3.org/2000/svg" xmlns:xlink="http://www.w3.org/1999/xlink" viewBox="0 0 841.88976 595.27559"><defs><style>.cls-1,.cls-10,.cls-9{fill:none;}.cls-2{clip-path:url(#clip-path);}.cls-3{fill:#4d9eff;}.cls-4{fill:#fcf08b;}.cls-5{fill:#f5ae5f;}.cls-6{fill:#ffa040;}.cls-13,.cls-14,.cls-17,.cls-7{fill:#0962e8;}.cls-7{opacity:0.5;}.cls-8{fill:#a0bde8;opacity:0.3;}.cls-10,.cls-9{stroke:#26267a;stroke-miterlimit:10;}.cls-9{stroke-width:1.53002px;}.cls-10{stroke-width:1.72803px;}.cls-11{clip-path:url(#clip-path-2);}.cls-12{fill:#fcf096;}.cls-13{opacity:0.6;}.cls-14{opacity:0.2;}.cls-15{clip-path:url(#clip-path-3);}.cls-16{clip-path:url(#clip-path-4);}</style><clipPath id="clip-path"><path class="cls-1" d="M676.35147,330.79838a42.08715,42.08715,0,0,1-83.11845-1.67609c-48.22473-3.08307-103.331-10.06425-165.27242-23.0004V391.8232a28.06322,28.06322,0,1,0,0,54.28625v86.85492c273.21782,57.06025,413.92916-1.46832,413.92916-1.46832V304.65357S786.01182,327.87855,676.35147,330.79838Z"/></clipPath><clipPath id="clip-path-2"><path class="cls-1" d="M841.88976,63.77954S701.17842,122.30812,427.9606,65.24787V134.9652a42.08938,42.08938,0,0,1,0,83.00284v74.1223c68.29907,14.264,128.31762,21.30458,179.92786,23.84212a28.06276,28.06276,0,1,0,54.35614,1.09933c118.98812-1.1811,179.64516-26.40977,179.64516-26.40977Z"/></clipPath><clipPath id="clip-path-3"><path class="cls-1" d="M378.85044,418.96633a42.09824,42.09824,0,0,1,35.07872-41.50147V303.18525c-68.29907-14.264-128.31762-21.30458-179.92785-23.84212a28.06275,28.06275,0,1,0-54.35615-1.09933C60.657,279.4249,0,304.65357,0,304.65357V531.49605s140.71135-58.52858,413.92916-1.46833v-69.56A42.09821,42.09821,0,0,1,378.85044,418.96633Z"/></clipPath><clipPath id="clip-path-4"><path class="cls-1" d="M420.94488,148.40358a28.02219,28.02219,0,0,0-7.01572.91987V62.31122C140.71135,5.251,0,63.77954,0,63.77954V290.622s55.87794-23.225,165.53829-26.1448a42.08714,42.08714,0,0,1,83.11845,1.67608c48.22474,3.08307,103.33095,10.06425,165.27242,23.0004v-85.544a28.05044,28.05044,0,1,0,7.01572-55.20612Z"/></clipPath></defs><g id="Logo"><g class="cls-2"><g id="Fond"><path class="cls-3" d="M841.88977,531.49609c-280.62988,93.54328-561.25983-93.54327-841.88978,0V63.77954c280.62992-93.54329,561.2599,93.54331,841.88978,0Z"/><path class="cls-4" d="M86.52754,230.30737c0,91.307,36.39159,166.84589,95.3996,227.42435A309.08193,309.08193,0,0,0,143.766,505.32944c184.78592-9.26209,369.57181,61.5953,554.35776,52.33322A371.23041,371.23041,0,0,0,659.96265,511.717c59.008-60.02509,95.39923-149.53,95.39953-240.292.00012-69.4491-21.08557-129.97956-57.18988-181.48124C513.35406,99.22147,328.53577,28.33758,143.71748,37.61539,107.61311,92.9043,86.52751,161.13974,86.52754,230.30737Z"/><path class="cls-5" d="M168.23206,442.88828C112.15471,443.64761,56.07736,451.13437,0,469.82678v37.41727c53.93388-17.978,107.86776-25.59042,161.80164-26.82172a297.46634,297.46634,0,0,1,20.1255-22.69061Q174.85062,450.46143,168.23206,442.88828Z"/><path class="cls-6" d="M841.88977,469.82678C785.81238,488.51923,729.735,496.006,673.65771,496.76532q-6.63225,7.73685-13.69506,14.95163,10.56216,10.85106,20.12561,22.34878c53.9339-1.23126,107.86761-8.84368,161.80151-26.82168Z"/><path class="cls-7" d="M668.65613,521.42358q-3.34387-3.6806-6.80115-7.28643c-24.28076-4.65458-50.2323-8.46811-77.20935-10.93262-76.5954-7.2659-144.99338-.39447-190.02487,23.92132,19.0513,3.138,38.10257,6.35675,57.15384,9.481,33.4657-20.0686,90.94812-26.78238,156.25689-22.18335C629.25464,515.86938,649.6416,518.29578,668.65613,521.42358Z"/><path class="cls-7" d="M841.88977,371.634c-12.102-12.61242-23.35626-29.88458-32.44629-50.60962-27.51929-63.365-24.83166-130.67462,6.00348-151.23971a40.00788,40.00788,0,0,1,26.44281-6.72342V141.86581c-17.39734-2.95581-33.54016-.522-46.46356,9.20017-38.26807,27.60647-33.82959,115.14114,9.91351,193.50949,11.01282,19.43719,23.46753,36.01117,36.55,48.98584Z"/><path class="cls-7" d="M353.63672,52.84833c-28.6579,56.19139-123.77152,80.0556-236.70757,89.5889-42.333,3.91555-82.16329,6.46-116.92917,7.33938V195.5321c29.36991-4.25833,60.82842-8.57174,93.54335-12.99493,73.63224-9.90778,140.90079-19.61655,192.29459-39.07756,51.39377-19.0322,86.91281-47.81664,97.04593-85.97173Q368.26032,55.1104,353.63672,52.84833Z"/><path class="cls-8" d="M426.06155,131.66574c-168.51107-27.46368-140.987,71.91626-134.52768,97.57477,6.4596,26.91986,3.93378,29.91333-11.234,28.1954-15.1677-3.27311-110.23767-63.61946-110.238-153.58813,0-17.57643,1.689-39.03419,8.28905-67.07175q-5.74379-.00344-11.48753.08487c-5.41554,25.2129-9.57631,50.19693-9.57634,67.24857,0,53.29046,26.7511,93.82629,56.90747,123.54785,30.15637,29.38736,63.71808,47.96054,77.33932,49.6087,16.14743,1.94965,23.31077-7.33081,23.31073-30.07486.0001-62.36166,10.11075-93.84707,160.92765-68.63782,75.40872,12.60456,166.938,37.27305,239.61514,45.37093,72.67731,10.26355,126.5025,3.95651,126.50238,4.62495V204.09448c.00031-.59067-61.829,5.07572-144.72223-10.69893C614.27441,180.48561,510.31741,146.13457,426.06155,131.66574Z"/><path class="cls-9" d="M63.14173,126.743q-16.37008,3.1854-32.74016,7.486"/><path class="cls-9" d="M63.14173,140.77444q-16.37008,3.18535-32.74016,7.48594"/><path class="cls-10" d="M63.14173,112.71146q-16.37008,3.18534-32.74016,7.48593,8.185-16.19,16.37008-32.0889Q54.95669,100.27056,63.14173,112.71146Z"/><path class="cls-9" d="M811.48822,152.35379q-16.37008,4.31712-32.74017,7.486"/><path class="cls-9" d="M811.48822,166.38528q-16.37008,4.3171-32.74017,7.486"/><path class="cls-10" d="M811.48822,138.3223q-16.37008,4.31707-32.74017,7.486,8.18508-15.62421,16.37-31.523Q803.30313,126.4473,811.48822,138.3223Z"/></g></g><g class="cls-11"><g id="Fond-2" data-name="Fond"><path class="cls-3" d="M841.88977,531.49609c-280.62988,93.54328-561.25983-93.54327-841.88978,0V63.77954c280.62992-93.54329,561.2599,93.54331,841.88978,0Z"/><path class="cls-12" d="M86.52754,230.30737c0,91.307,36.39159,166.84589,95.3996,227.42435A309.08193,309.08193,0,0,0,143.766,505.32944c184.78592-9.26209,369.57181,61.5953,554.35776,52.33322A371.23041,371.23041,0,0,0,659.96265,511.717c59.008-60.02509,95.39923-149.53,95.39953-240.292.00012-69.4491-21.08557-129.97956-57.18988-181.48124C513.35406,99.22147,328.53577,28.33758,143.71748,37.61539,107.61311,92.9043,86.52751,161.13974,86.52754,230.30737Z"/><path class="cls-5" d="M168.23206,442.88828C112.15471,443.64761,56.07736,451.13437,0,469.82678v37.41727c53.93388-17.978,107.86776-25.59042,161.80164-26.82172a297.46634,297.46634,0,0,1,20.1255-22.69061Q174.85062,450.46143,168.23206,442.88828Z"/><path class="cls-5" d="M841.88977,469.82678C785.81238,488.51923,729.735,496.006,673.65771,496.76532q-6.63225,7.73685-13.69506,14.95163,10.56216,10.85106,20.12561,22.34878c53.9339-1.23126,107.86761-8.84368,161.80151-26.82168Z"/><path class="cls-13" d="M668.65613,521.42358q-3.34387-3.6806-6.80115-7.28643c-24.28076-4.65458-50.2323-8.46811-77.20935-10.93262-76.5954-7.2659-144.99338-.39447-190.02487,23.92132,19.0513,3.138,38.10257,6.35675,57.15384,9.481,33.4657-20.0686,90.94812-26.78238,156.25689-22.18335C629.25464,515.86938,649.6416,518.29578,668.65613,521.42358Z"/><path class="cls-7" d="M841.88977,371.634c-12.102-12.61242-23.35626-29.88458-32.44629-50.60962-27.51929-63.365-24.83166-130.67462,6.00348-151.23971a40.00788,40.00788,0,0,1,26.44281-6.72342V141.86581c-17.39734-2.95581-33.54016-.522-46.46356,9.20017-38.26807,27.60647-33.82959,115.14114,9.91351,193.50949,11.01282,19.43719,23.46753,36.01117,36.55,48.98584Z"/><path class="cls-7" d="M353.63672,52.84833c-28.6579,56.19139-123.77152,80.0556-236.70757,89.5889-42.333,3.91555-82.16329,6.46-116.92917,7.33938V195.5321c29.36991-4.25833,60.82842-8.57174,93.54335-12.99493,73.63224-9.90778,140.90079-19.61655,192.29459-39.07756,51.39377-19.0322,86.91281-47.81664,97.04593-85.97173Q368.26032,55.1104,353.63672,52.84833Z"/><path class="cls-14" d="M426.06155,131.66574c-168.51107-27.46368-140.987,71.91626-134.52768,97.57477,6.4596,26.91986,3.93378,29.91333-11.234,28.1954-15.1677-3.27311-110.23767-63.61946-110.238-153.58813,0-17.57643,1.689-39.03419,8.28905-67.07175q-5.74379-.00344-11.48753.08487c-5.41554,25.2129-9.57631,50.19693-9.57634,67.24857,0,53.29046,26.7511,93.82629,56.90747,123.54785,30.15637,29.38736,63.71808,47.96054,77.33932,49.6087,16.14743,1.94965,23.31077-7.33081,23.31073-30.07486.0001-62.36166,10.11075-93.84707,160.92765-68.63782,75.40872,12.60456,166.938,37.27305,239.61514,45.37093,72.67731,10.26355,126.5025,3.95651,126.50238,4.62495V204.09448c.00031-.59067-61.829,5.07572-144.72223-10.69893C614.27441,180.48561,510.31741,146.13457,426.06155,131.66574Z"/><path class="cls-9" d="M63.14173,126.743q-16.37008,3.1854-32.74016,7.486"/><path class="cls-9" d="M63.14173,140.77444q-16.37008,3.18535-32.74016,7.48594"/><path class="cls-10" d="M63.14173,112.71146q-16.37008,3.18534-32.74016,7.48593,8.185-16.19,16.37008-32.0889Q54.95669,100.27056,63.14173,112.71146Z"/><path class="cls-9" d="M811.48822,152.35379q-16.37008,4.31712-32.74017,7.486"/><path class="cls-9" d="M811.48822,166.38528q-16.37008,4.3171-32.74017,7.486"/><path class="cls-10" d="M811.48822,138.3223q-16.37008,4.31707-32.74017,7.486,8.18508-15.62421,16.37-31.523Q803.30313,126.4473,811.48822,138.3223Z"/></g></g><g class="cls-15"><g id="Fond-3" data-name="Fond"><path class="cls-3" d="M841.88977,531.49609c-280.62988,93.54328-561.25983-93.54327-841.88978,0V63.77954c280.62992-93.54329,561.2599,93.54331,841.88978,0Z"/><path class="cls-4" d="M86.52754,230.30737c0,91.307,36.39159,166.84589,95.3996,227.42435A309.08193,309.08193,0,0,0,143.766,505.32944c184.78592-9.26209,369.57181,61.5953,554.35776,52.33322A371.23041,371.23041,0,0,0,659.96265,511.717c59.008-60.02509,95.39923-149.53,95.39953-240.292.00012-69.4491-21.08557-129.97956-57.18988-181.48124C513.35406,99.22147,328.53577,28.33758,143.71748,37.61539,107.61311,92.9043,86.52751,161.13974,86.52754,230.30737Z"/><path class="cls-6" d="M168.23206,442.88828C112.15471,443.64761,56.07736,451.13437,0,469.82678v37.41727c53.93388-17.978,107.86776-25.59042,161.80164-26.82172a297.46634,297.46634,0,0,1,20.1255-22.69061Q174.85062,450.46143,168.23206,442.88828Z"/><path class="cls-3" d="M841.88977,469.82678C785.81238,488.51923,729.735,496.006,673.65771,496.76532q-6.63225,7.73685-13.69506,14.95163,10.56216,10.85106,20.12561,22.34878c53.9339-1.23126,107.86761-8.84368,161.80151-26.82168Z"/><path class="cls-13" d="M668.65613,521.42358q-3.34387-3.6806-6.80115-7.28643c-24.28076-4.65458-50.2323-8.46811-77.20935-10.93262-76.5954-7.2659-144.99338-.39447-190.02487,23.92132,19.0513,3.138,38.10257,6.35675,57.15384,9.481,33.4657-20.0686,90.94812-26.78238,156.25689-22.18335C629.25464,515.86938,649.6416,518.29578,668.65613,521.42358Z"/><path class="cls-7" d="M841.88977,371.634c-12.102-12.61242-23.35626-29.88458-32.44629-50.60962-27.51929-63.365-24.83166-130.67462,6.00348-151.23971a40.00788,40.00788,0,0,1,26.44281-6.72342V141.86581c-17.39734-2.95581-33.54016-.522-46.46356,9.20017-38.26807,27.60647-33.82959,115.14114,9.91351,193.50949,11.01282,19.43719,23.46753,36.01117,36.55,48.98584Z"/><path class="cls-7" d="M353.63672,52.84833c-28.6579,56.19139-123.77152,80.0556-236.70757,89.5889-42.333,3.91555-82.16329,6.46-116.92917,7.33938V195.5321c29.36991-4.25833,60.82842-8.57174,93.54335-12.99493,73.63224-9.90778,140.90079-19.61655,192.29459-39.07756,51.39377-19.0322,86.91281-47.81664,97.04593-85.97173Q368.26032,55.1104,353.63672,52.84833Z"/><path class="cls-8" d="M426.06155,131.66574c-168.51107-27.46368-140.987,71.91626-134.52768,97.57477,6.4596,26.91986,3.93378,29.91333-11.234,28.1954-15.1677-3.27311-110.23767-63.61946-110.238-153.58813,0-17.57643,1.689-39.03419,8.28905-67.07175q-5.74379-.00344-11.48753.08487c-5.41554,25.2129-9.57631,50.19693-9.57634,67.24857,0,53.29046,26.7511,93.82629,56.90747,123.54785,30.15637,29.38736,63.71808,47.96054,77.33932,49.6087,16.14743,1.94965,23.31077-7.33081,23.31073-30.07486.0001-62.36166,10.11075-93.84707,160.92765-68.63782,75.40872,12.60456,166.938,37.27305,239.61514,45.37093,72.67731,10.26355,126.5025,3.95651,126.50238,4.62495V204.09448c.00031-.59067-61.829,5.07572-144.72223-10.69893C614.27441,180.48561,510.31741,146.13457,426.06155,131.66574Z"/><path class="cls-9" d="M63.14173,126.743q-16.37008,3.1854-32.74016,7.486"/><path class="cls-9" d="M63.14173,140.77444q-16.37008,3.18535-32.74016,7.48594"/><path class="cls-10" d="M63.14173,112.71146q-16.37008,3.18534-32.74016,7.48593,8.185-16.19,16.37008-32.0889Q54.95669,100.27056,63.14173,112.71146Z"/><path class="cls-9" d="M811.48822,152.35379q-16.37008,4.31712-32.74017,7.486"/><path class="cls-9" d="M811.48822,166.38528q-16.37008,4.3171-32.74017,7.486"/><path class="cls-10" d="M811.48822,138.3223q-16.37008,4.31707-32.74017,7.486,8.18508-15.62421,16.37-31.523Q803.30313,126.4473,811.48822,138.3223Z"/></g></g><g class="cls-16"><g id="Fond-4" data-name="Fond"><path class="cls-3" d="M841.88977,531.49609c-280.62988,93.54328-561.25983-93.54327-841.88978,0V63.77954c280.62992-93.54329,561.2599,93.54331,841.88978,0Z"/><path class="cls-4" d="M86.52754,230.30737c0,91.307,36.39159,166.84589,95.3996,227.42435A309.08193,309.08193,0,0,0,143.766,505.32944c184.78592-9.26209,369.57181,61.5953,554.35776,52.33322A371.23041,371.23041,0,0,0,659.96265,511.717c59.008-60.02509,95.39923-149.53,95.39953-240.292.00012-69.4491-21.08557-129.97956-57.18988-181.48124C513.35406,99.22147,328.53577,28.33758,143.71748,37.61539,107.61311,92.9043,86.52751,161.13974,86.52754,230.30737Z"/><path class="cls-5" d="M168.23206,442.88828C112.15471,443.64761,56.07736,451.13437,0,469.82678v37.41727c53.93388-17.978,107.86776-25.59042,161.80164-26.82172a297.46634,297.46634,0,0,1,20.1255-22.69061Q174.85062,450.46143,168.23206,442.88828Z"/><path class="cls-5" d="M841.88977,469.82678C785.81238,488.51923,729.735,496.006,673.65771,496.76532q-6.63225,7.73685-13.69506,14.95163,10.56216,10.85106,20.12561,22.34878c53.9339-1.23126,107.86761-8.84368,161.80151-26.82168Z"/><path class="cls-13" d="M668.65613,521.42358q-3.34387-3.6806-6.80115-7.28643c-24.28076-4.65458-50.2323-8.46811-77.20935-10.93262-76.5954-7.2659-144.99338-.39447-190.02487,23.92132,19.0513,3.138,38.10257,6.35675,57.15384,9.481,33.4657-20.0686,90.94812-26.78238,156.25689-22.18335C629.25464,515.86938,649.6416,518.29578,668.65613,521.42358Z"/><path class="cls-17" d="M841.88977,371.634c-12.102-12.61242-23.35626-29.88458-32.44629-50.60962-27.51929-63.365-24.83166-130.67462,6.00348-151.23971a40.00788,40.00788,0,0,1,26.44281-6.72342V141.86581c-17.39734-2.95581-33.54016-.522-46.46356,9.20017-38.26807,27.60647-33.82959,115.14114,9.91351,193.50949,11.01282,19.43719,23.46753,36.01117,36.55,48.98584Z"/><path class="cls-7" d="M353.63672,52.84833c-28.6579,56.19139-123.77152,80.0556-236.70757,89.5889-42.333,3.91555-82.16329,6.46-116.92917,7.33938V195.5321c29.36991-4.25833,60.82842-8.57174,93.54335-12.99493,73.63224-9.90778,140.90079-19.61655,192.29459-39.07756,51.39377-19.0322,86.91281-47.81664,97.04593-85.97173Q368.26032,55.1104,353.63672,52.84833Z"/><path class="cls-14" d="M426.06155,131.66574c-168.51107-27.46368-140.987,71.91626-134.52768,97.57477,6.4596,26.91986,3.93378,29.91333-11.234,28.1954-15.1677-3.27311-110.23767-63.61946-110.238-153.58813,0-17.57643,1.689-39.03419,8.28905-67.07175q-5.74379-.00344-11.48753.08487c-5.41554,25.2129-9.57631,50.19693-9.57634,67.24857,0,53.29046,26.7511,93.82629,56.90747,123.54785,30.15637,29.38736,63.71808,47.96054,77.33932,49.6087,16.14743,1.94965,23.31077-7.33081,23.31073-30.07486.0001-62.36166,10.11075-93.84707,160.92765-68.63782,75.40872,12.60456,166.938,37.27305,239.61514,45.37093,72.67731,10.26355,126.5025,3.95651,126.50238,4.62495V204.09448c.00031-.59067-61.829,5.07572-144.72223-10.69893C614.27441,180.48561,510.31741,146.13457,426.06155,131.66574Z"/><path class="cls-9" d="M63.14173,126.743q-16.37008,3.1854-32.74016,7.486"/><path class="cls-9" d="M63.14173,140.77444q-16.37008,3.18535-32.74016,7.48594"/><path class="cls-10" d="M63.14173,112.71146q-16.37008,3.18534-32.74016,7.48593,8.185-16.19,16.37008-32.0889Q54.95669,100.27056,63.14173,112.71146Z"/><path class="cls-9" d="M811.48822,152.35379q-16.37008,4.31712-32.74017,7.486"/><path class="cls-9" d="M811.48822,166.38528q-16.37008,4.3171-32.74017,7.486"/><path class="cls-10" d="M811.48822,138.3223q-16.37008,4.31707-32.74017,7.486,8.18508-15.62421,16.37-31.523Q803.30313,126.4473,811.48822,138.3223Z"/></g></g></g></svg>